<svg width="25" height="20" viewBox="0 0 25 20" fill="none" xmlns="http://www.w3.org/2000/svg">
<rect width="25" height="20" fill="#1E1E1E"/>
<rect id="Rectangle 1" x="-1761.5" y="-7568.5" width="11931" height="10446" fill="white" stroke="black"/>
<g id="statichunt.com by html.to.design &#226;&#157;&#164;&#239;&#184;&#143; FREE version - 18/10/2023, 20:17:15 GMT+5:30" filter="url(#filter0_d_0_1)">
<rect x="-943.49" y="-7050.86" width="1440" height="581" fill="#20262E" shape-rendering="crispEdges"/>
<g id="div.demo-preview-wrapper">
<rect width="1440" height="581" transform="translate(-943.49 -7050.86)" fill="#1C2028"/>
<g id="div.demo-preview-content">
<rect width="1440" height="581" transform="translate(-943.49 -7050.86)" fill="#323940"/>
<g id="Iframe">
<g id="div.bg-darkblue">
<rect width="1440" height="661" transform="translate(-943.49 -418.204)" fill="#000321"/>
<g id="div.mx-auto">
<g id="div.my-24">
<g id="div.col-span-4">
<g id="div.flex">
<g id="email.svg" clip-path="url(#clip0_0_1)">
<g id="email.svg fill" clip-path="url(#clip1_0_1)">
<g id="email.svg_2" clip-path="url(#clip2_0_1)">
<path id="Vector" d="M20.9098 0.196289H4.10983C3.15505 0.196289 2.23937 0.575574 1.56424 1.25071C0.889112 1.92584 0.509827 2.84151 0.509827 3.79629V15.7963C0.509827 16.751 0.889112 17.6667 1.56424 18.3419C2.23937 19.017 3.15505 19.3963 4.10983 19.3963H20.9098C21.8645 19.3963 22.7803 19.017 23.4554 18.3419C24.1305 17.6667 24.5098 16.751 24.5098 15.7963V3.79629C24.5098 2.84151 24.1305 1.92584 23.4554 1.25071C22.7803 0.575574 21.8645 0.196289 20.9098 0.196289ZM20.9098 2.59629L13.1098 7.96029C12.9274 8.06561 12.7204 8.12105 12.5098 8.12105C12.2992 8.12105 12.0923 8.06561 11.9098 7.96029L4.10983 2.59629H20.9098Z" fill="#0C6BFF"/>
</g>
</g>
</g>
</g>
</g>
</g>
</g>
</g>
</g>
</g>
</g>
<rect x="-943.99" y="-7051.36" width="1441" height="582" stroke="black" shape-rendering="crispEdges"/>
</g>
<defs>
<filter id="filter0_d_0_1" x="-1090" y="-7051.86" width="1591.51" height="7302.66" filterUnits="userSpaceOnUse" color-interpolation-filters="sRGB">
<feFlood flood-opacity="0" result="BackgroundImageFix"/>
<feColorMatrix in="SourceAlpha" type="matrix" values="0 0 0 0 0 0 0 0 0 0 0 0 0 0 0 0 0 0 127 0" result="hardAlpha"/>
<feOffset dy="4"/>
<feGaussianBlur stdDeviation="2"/>
<feComposite in2="hardAlpha" operator="out"/>
<feColorMatrix type="matrix" values="0 0 0 0 0 0 0 0 0 0 0 0 0 0 0 0 0 0 0.25 0"/>
<feBlend mode="normal" in2="BackgroundImageFix" result="effect1_dropShadow_0_1"/>
<feBlend mode="normal" in="SourceGraphic" in2="effect1_dropShadow_0_1" result="shape"/>
</filter>
<clipPath id="clip0_0_1">
<rect width="24" height="24" fill="white" transform="translate(0.509827 -2.2041)"/>
</clipPath>
<clipPath id="clip1_0_1">
<rect width="24" height="24" fill="white" transform="translate(0.509827 -2.2041)"/>
</clipPath>
<clipPath id="clip2_0_1">
<rect width="24" height="19.2" fill="white" transform="translate(0.509827 0.196289)"/>
</clipPath>
</defs>
</svg>
