<svg width="22" height="23" viewBox="0 0 22 23" fill="none" xmlns="http://www.w3.org/2000/svg">
<g clip-path="url(#clip0_2_461)">
<path d="M8.25984 21.0323C8.76613 21.0323 9.1765 20.6219 9.1765 20.1156C9.1765 19.6093 8.76613 19.199 8.25984 19.199C7.75354 19.199 7.34317 19.6093 7.34317 20.1156C7.34317 20.6219 7.75354 21.0323 8.25984 21.0323Z" stroke="#D6B0F9" stroke-width="1.46667" stroke-linecap="round" stroke-linejoin="round"/>
<path d="M18.3431 21.0323C18.8494 21.0323 19.2598 20.6219 19.2598 20.1156C19.2598 19.6093 18.8494 19.199 18.3431 19.199C17.8369 19.199 17.4265 19.6093 17.4265 20.1156C17.4265 20.6219 17.8369 21.0323 18.3431 21.0323Z" stroke="#D6B0F9" stroke-width="1.46667" stroke-linecap="round" stroke-linejoin="round"/>
<path d="M0.926483 1.78247H4.59315L7.04982 14.0566C7.13364 14.4787 7.36324 14.8577 7.69838 15.1276C8.03358 15.3974 8.45298 15.5407 8.88315 15.5325H17.7931C18.2233 15.5407 18.6427 15.3974 18.9779 15.1276C19.3131 14.8577 19.5427 14.4787 19.6265 14.0566L21.0931 6.3658H5.50982" fill="#BA7AF3"/>
<path d="M0.926483 1.78247H4.59315L7.04982 14.0566C7.13364 14.4787 7.36324 14.8577 7.69838 15.1276C8.03358 15.3974 8.45298 15.5407 8.88315 15.5325H17.7931C18.2233 15.5407 18.6427 15.3974 18.9779 15.1276C19.3131 14.8577 19.5427 14.4787 19.6265 14.0566L21.0931 6.3658H5.50982" fill="#BA7AF3"/>
</g>
<defs>
<clipPath id="clip0_2_461">
<rect width="22" height="22" fill="white" transform="translate(0.00982666 0.865723)"/>
</clipPath>
</defs>
</svg>
