<svg width="21" height="21" viewBox="0 0 21 21" fill="none" xmlns="http://www.w3.org/2000/svg">
<path fill-rule="evenodd" clip-rule="evenodd" d="M7.02859 1.73053C7.91469 1.68974 8.19722 1.68066 10.4544 1.68066C12.7116 1.68066 12.9942 1.69049 13.8795 1.73053C14.7648 1.77056 15.3692 1.91182 15.8979 2.11655C16.4516 2.3258 16.954 2.6529 17.3695 3.07593C17.7926 3.49065 18.1189 3.99224 18.3274 4.54673C18.5329 5.07552 18.6733 5.67985 18.7142 6.5637C18.7549 7.45131 18.764 7.73383 18.764 9.99026C18.764 12.2475 18.7542 12.53 18.7142 13.4161C18.6742 14.2999 18.5329 14.9042 18.3274 15.4331C18.1189 15.9876 17.7919 16.49 17.3695 16.9054C16.954 17.3284 16.4516 17.6547 15.8979 17.8633C15.3692 18.0687 14.7648 18.2093 13.881 18.25C12.9942 18.2908 12.7116 18.2999 10.4544 18.2999C8.19722 18.2999 7.91469 18.29 7.02859 18.25C6.14474 18.21 5.54042 18.0687 5.01162 17.8633C4.45708 17.6547 3.95466 17.3278 3.53931 16.9054C3.11656 16.4904 2.78942 15.9882 2.58069 15.4338C2.37596 14.9051 2.23546 14.3006 2.19467 13.4168C2.15387 12.5293 2.14481 12.2467 2.14481 9.99026C2.14481 7.73307 2.15463 7.45055 2.19467 6.5652C2.2347 5.67985 2.37596 5.07552 2.58069 4.54673C2.78972 3.99231 3.11712 3.49013 3.54007 3.07517C3.95482 2.65252 4.45674 2.32538 5.01087 2.11655C5.53966 1.91182 6.14475 1.77132 7.02859 1.73053ZM13.8123 3.22625C12.9359 3.18622 12.6731 3.17791 10.4544 3.17791C8.23574 3.17791 7.97286 3.18622 7.09657 3.22625C6.28601 3.26327 5.84635 3.39849 5.55326 3.51256C5.16572 3.66364 4.88849 3.84267 4.59765 4.13351C4.32195 4.40173 4.10978 4.72824 3.9767 5.08912C3.86263 5.38222 3.72741 5.82187 3.6904 6.63243C3.65035 7.50872 3.64205 7.7716 3.64205 9.99026C3.64205 12.2089 3.65035 12.4718 3.6904 13.3481C3.72741 14.1586 3.86263 14.5983 3.9767 14.8914C4.10965 15.2518 4.32192 15.5788 4.59765 15.8471C4.86583 16.1227 5.19292 16.3351 5.55326 16.468C5.84635 16.582 6.28601 16.7173 7.09657 16.7543C7.97286 16.7943 8.23499 16.8026 10.4544 16.8026C12.6738 16.8026 12.9359 16.7943 13.8123 16.7543C14.6228 16.7173 15.0625 16.582 15.3555 16.468C15.7431 16.3168 16.0204 16.1379 16.3112 15.8471C16.5869 15.5788 16.7992 15.2518 16.9322 14.8914C17.0462 14.5983 17.1814 14.1586 17.2185 13.3481C17.2585 12.4718 17.2668 12.2089 17.2668 9.99026C17.2668 7.7716 17.2585 7.50872 17.2185 6.63243C17.1814 5.82187 17.0462 5.38222 16.9322 5.08912C16.781 4.70159 16.602 4.42435 16.3112 4.13351C16.0429 3.85783 15.7165 3.64567 15.3555 3.51256C15.0625 3.39849 14.6228 3.26327 13.8123 3.22625ZM9.39305 12.5519C9.98579 12.7986 10.6458 12.8319 11.2604 12.6461C11.875 12.4603 12.4059 12.0668 12.7627 11.5331C13.1194 10.9992 13.2797 10.3581 13.2163 9.71915C13.1528 9.08024 12.8695 8.48319 12.4147 8.02996C12.1248 7.74023 11.7743 7.5184 11.3884 7.38041C11.0024 7.24242 10.5907 7.19172 10.1828 7.23195C9.77495 7.27218 9.38107 7.40234 9.02954 7.61306C8.67801 7.82379 8.37756 8.10984 8.14986 8.45061C7.92214 8.79139 7.77282 9.17841 7.71263 9.58382C7.65244 9.98923 7.68289 10.4029 7.80179 10.7952C7.92068 11.1874 8.12506 11.5484 8.40022 11.8522C8.67536 12.1559 9.01445 12.3949 9.39305 12.5519ZM7.43425 6.97011C7.83086 6.5735 8.30171 6.25889 8.81991 6.04423C9.33811 5.82959 9.89351 5.71912 10.4544 5.71912C11.0153 5.71912 11.5707 5.82959 12.0889 6.04423C12.6071 6.25889 13.0779 6.5735 13.4746 6.97011C13.8712 7.36672 14.1858 7.83757 14.4005 8.35577C14.6151 8.87397 14.7255 9.42937 14.7255 9.99026C14.7255 10.5512 14.6151 11.1065 14.4005 11.6247C14.1858 12.1429 13.8712 12.6138 13.4746 13.0104C12.6735 13.8115 11.5872 14.2614 10.4544 14.2614C9.32163 14.2614 8.23524 13.8115 7.43425 13.0104C6.63325 12.2095 6.18326 11.1231 6.18326 9.99026C6.18326 8.85748 6.63325 7.77111 7.43425 6.97011ZM15.6728 6.35519C15.7711 6.26249 15.8498 6.15099 15.9043 6.02733C15.9587 5.90365 15.9877 5.77033 15.9896 5.63523C15.9916 5.50013 15.9665 5.36601 15.9157 5.24081C15.8649 5.11561 15.7895 5.00187 15.6939 4.90634C15.5985 4.81079 15.4847 4.7354 15.3595 4.6846C15.2343 4.63381 15.1002 4.60865 14.9651 4.61062C14.8299 4.61259 14.6967 4.64164 14.573 4.69606C14.4493 4.75048 14.3378 4.82917 14.2451 4.92745C14.0648 5.1186 13.966 5.37248 13.9699 5.63523C13.9737 5.89797 14.0798 6.14887 14.2656 6.33469C14.4514 6.52049 14.7024 6.62656 14.9651 6.63039C15.2278 6.63422 15.4817 6.53551 15.6728 6.35519Z" fill="white"/>
</svg>
