
<svg xmlns="http://www.w3.org/2000/svg" width="25" height="20" viewBox="0 0 25 20" fill="none">
<g clip-path="url(#clip0_2_1460)">
<path d="M21.0599 0.121094H4.25991C3.30513 0.121094 2.38946 0.500379 1.71433 1.17551C1.0392 1.85064 0.659912 2.76631 0.659912 3.72109V15.7211C0.659912 16.6758 1.0392 17.5915 1.71433 18.2667C2.38946 18.9418 3.30513 19.3211 4.25991 19.3211H21.0599C22.0146 19.3211 22.9304 18.9418 23.6055 18.2667C24.2806 17.5915 24.6599 16.6758 24.6599 15.7211V3.72109C24.6599 2.76631 24.2806 1.85064 23.6055 1.17551C22.9304 0.500379 22.0146 0.121094 21.0599 0.121094ZM21.0599 2.52109L13.2599 7.88509C13.0775 7.99042 12.8705 8.04586 12.6599 8.04586C12.4493 8.04586 12.2423 7.99042 12.0599 7.88509L4.25991 2.52109H21.0599Z" fill="#0C6BFF"/>
</g>
<defs>
<clipPath id="clip0_2_1460">
<rect width="24" height="19.2" fill="white" transform="translate(0.659912 0.121094)"/>
</clipPath>
</defs>
</svg>