<svg width="65" height="65" viewBox="0 0 65 65" fill="none" xmlns="http://www.w3.org/2000/svg">
<g clip-path="url(#clip0_2_1172)">
<path d="M52.8081 0.290039H12.5118C5.96617 0.290039 0.659912 5.59629 0.659912 12.1419V52.4382C0.659912 58.9838 5.96617 64.29 12.5118 64.29H52.8081C59.3537 64.29 64.6599 58.9838 64.6599 52.4382V12.1419C64.6599 5.59629 59.3537 0.290039 52.8081 0.290039Z" fill="#806DF2" fill-opacity="0.15"/>
<path d="M15.4747 28.1418L47.4747 19.2529V40.5863L15.4747 33.4752V28.1418Z" stroke="#BC7AF2" stroke-width="2.37037" stroke-linecap="round" stroke-linejoin="round"/>
<path d="M30.7632 38.4531C30.5764 39.1302 30.2581 39.7638 29.8264 40.3177C29.3948 40.8718 28.8583 41.3353 28.2475 41.682C27.6367 42.0287 26.9636 42.2517 26.2666 42.3382C25.5696 42.4248 24.8624 42.3732 24.1854 42.1864C23.5083 41.9996 22.8747 41.6814 22.3208 41.2498C21.7667 40.8181 21.3032 40.2816 20.9564 39.6707C20.6097 39.0599 20.3868 38.3868 20.3003 37.6898C20.2138 36.9928 20.2653 36.2857 20.4521 35.6086" stroke="#BC7AF2" stroke-width="2.37037" stroke-linecap="round" stroke-linejoin="round"/>
</g>
<defs>
<clipPath id="clip0_2_1172">
<rect width="64" height="64" fill="white" transform="translate(0.659912 0.290039)"/>
</clipPath>
</defs>
</svg>
