<svg width="22" height="23" viewBox="0 0 22 23" fill="none" xmlns="http://www.w3.org/2000/svg">
<g clip-path="url(#clip0_2_481)">
<path d="M15.5932 20.1157V18.2824C15.5932 17.3099 15.2069 16.3773 14.5192 15.6897C13.8316 15.002 12.899 14.6157 11.9265 14.6157H4.59318C3.62072 14.6157 2.68809 15.002 2.00046 15.6897C1.31282 16.3773 0.926514 17.3099 0.926514 18.2824V20.1157" fill="#4DD590"/>
<path d="M8.25981 10.9491C10.2848 10.9491 11.9265 9.30742 11.9265 7.28239C11.9265 5.25735 10.2848 3.61572 8.25981 3.61572C6.23477 3.61572 4.59314 5.25735 4.59314 7.28239C4.59314 9.30742 6.23477 10.9491 8.25981 10.9491Z" fill="#4DD590"/>
<path d="M21.0931 20.1157V18.2824C21.0926 17.47 20.8221 16.6808 20.3244 16.0387C19.8267 15.3965 19.1298 14.938 18.3431 14.7349" stroke="#4DD590" stroke-opacity="0.35" stroke-width="1.46667" stroke-linecap="round" stroke-linejoin="round"/>
<path d="M14.6765 3.73486C15.4652 3.9368 16.1643 4.3955 16.6635 5.03864C17.1627 5.68179 17.4337 6.47279 17.4337 7.28695C17.4337 8.1011 17.1627 8.8921 16.6635 9.53523C16.1643 10.1784 15.4652 10.6371 14.6765 10.839" stroke="#4DD590" stroke-opacity="0.35" stroke-width="1.46667" stroke-linecap="round" stroke-linejoin="round"/>
</g>
<defs>
<clipPath id="clip0_2_481">
<rect width="22" height="22" fill="white" transform="translate(0.00982666 0.865723)"/>
</clipPath>
</defs>
</svg>
