<svg width="55" height="56" viewBox="0 0 55 56" fill="none" xmlns="http://www.w3.org/2000/svg">
<path d="M27.5 53.8311C41.7386 53.8311 53.2812 42.2884 53.2812 28.0498C53.2812 13.8112 41.7386 2.26855 27.5 2.26855C13.2614 2.26855 1.71875 13.8112 1.71875 28.0498C1.71875 42.2884 13.2614 53.8311 27.5 53.8311Z" fill="#75A843"/>
<path d="M27.5 53.8311C41.7386 53.8311 53.2812 42.2884 53.2812 28.0498C53.2812 13.8112 41.7386 2.26855 27.5 2.26855C13.2614 2.26855 1.71875 13.8112 1.71875 28.0498C1.71875 42.2884 13.2614 53.8311 27.5 53.8311Z" fill="#699635"/>
<path d="M22.3441 40.167C29.0362 40.167 34.4613 34.7419 34.4613 28.0498C34.4613 21.3577 29.0362 15.9326 22.3441 15.9326C15.652 15.9326 10.2269 21.3577 10.2269 28.0498C10.2269 34.7419 15.652 40.167 22.3441 40.167Z" fill="#ED4C5C"/>
</svg>
