<svg width="222" height="65" viewBox="0 0 222 65" fill="none" xmlns="http://www.w3.org/2000/svg">
<g clip-path="url(#clip0_2_2593)">
<path d="M25.9204 52.0508C40.2358 52.0508 51.8408 40.4458 51.8408 26.1304C51.8408 11.8149 40.2358 0.209961 25.9204 0.209961C11.605 0.209961 0 11.8149 0 26.1304C0 40.4458 11.605 52.0508 25.9204 52.0508Z" fill="url(#paint0_linear_2_2593)"/>
<path d="M44.6079 64.1064C58.9233 64.1064 70.5283 52.5015 70.5283 38.186C70.5283 23.8706 58.9233 12.2656 44.6079 12.2656C30.2925 12.2656 18.6875 23.8706 18.6875 38.186C18.6875 52.5015 30.2925 64.1064 44.6079 64.1064Z" fill="url(#paint1_linear_2_2593)"/>
<path d="M100.981 21.7325C103.143 21.7325 105.041 22.1552 106.672 23.0006C108.324 23.846 109.592 25.0551 110.477 26.6279C111.381 28.1811 111.833 29.9899 111.833 32.0542C111.833 34.1186 111.381 35.9274 110.477 37.4805C109.592 39.0141 108.324 40.2035 106.672 41.0489C105.041 41.8943 103.143 42.317 100.981 42.317H93.7847V21.7325H100.981ZM100.833 38.8076C102.996 38.8076 104.667 38.2178 105.847 37.0382C107.026 35.8586 107.616 34.1972 107.616 32.0542C107.616 29.9112 107.026 28.2401 105.847 27.0408C104.667 25.8219 102.996 25.2124 100.833 25.2124H97.9134V38.8076H100.833ZM121.176 42.5825C119.839 42.5825 118.64 42.3465 117.578 41.8747C116.516 41.3832 115.671 40.7245 115.042 39.8988C114.432 39.073 114.098 38.1588 114.039 37.1561H118.197C118.276 37.7853 118.581 38.3063 119.111 38.7192C119.662 39.132 120.34 39.3385 121.146 39.3385C121.933 39.3385 122.542 39.1812 122.975 38.8666C123.427 38.552 123.653 38.149 123.653 37.6575C123.653 37.1267 123.378 36.7334 122.827 36.4779C122.296 36.2026 121.441 35.9077 120.262 35.5931C119.043 35.2982 118.04 34.9935 117.254 34.6789C116.487 34.3644 115.818 33.8827 115.248 33.2339C114.698 32.5851 114.422 31.7102 114.422 30.6092C114.422 29.7048 114.678 28.8791 115.189 28.132C115.72 27.3849 116.467 26.7951 117.43 26.3625C118.414 25.93 119.564 25.7137 120.881 25.7137C122.827 25.7137 124.38 26.2052 125.54 27.1883C126.7 28.1516 127.339 29.4591 127.457 31.1105H123.506C123.447 30.4617 123.171 29.9506 122.68 29.577C122.208 29.1838 121.569 28.9872 120.763 28.9872C120.016 28.9872 119.436 29.1248 119.023 29.4001C118.63 29.6753 118.433 30.0587 118.433 30.5502C118.433 31.1007 118.708 31.5234 119.259 31.8183C119.809 32.0936 120.665 32.3786 121.825 32.6735C123.004 32.9685 123.977 33.2732 124.744 33.5878C125.511 33.9023 126.17 34.3938 126.72 35.0623C127.29 35.7111 127.585 36.5762 127.605 37.6575C127.605 38.6012 127.339 39.4466 126.809 40.1937C126.297 40.9408 125.55 41.5306 124.567 41.9631C123.604 42.376 122.473 42.5825 121.176 42.5825ZM133.088 24.0328C132.36 24.0328 131.751 23.8067 131.259 23.3545C130.787 22.8826 130.552 22.3026 130.552 21.6145C130.552 20.9264 130.787 20.3562 131.259 19.904C131.751 19.4322 132.36 19.1963 133.088 19.1963C133.815 19.1963 134.415 19.4322 134.887 19.904C135.378 20.3562 135.624 20.9264 135.624 21.6145C135.624 22.3026 135.378 22.8826 134.887 23.3545C134.415 23.8067 133.815 24.0328 133.088 24.0328ZM135.123 25.9791V42.317H130.994V25.9791H135.123ZM145.601 25.7137C146.82 25.7137 147.892 25.9595 148.816 26.451C149.74 26.9228 150.467 27.5422 150.998 28.3089V25.9791H155.156V42.435C155.156 43.9489 154.852 45.2956 154.242 46.4752C153.633 47.6745 152.718 48.6182 151.499 49.3063C150.281 50.0141 148.806 50.368 147.076 50.368C144.756 50.368 142.849 49.8274 141.355 48.746C139.88 47.6647 139.045 46.1902 138.848 44.3224H142.947C143.163 45.0695 143.625 45.6593 144.333 46.0919C145.061 46.544 145.936 46.7701 146.958 46.7701C148.157 46.7701 149.13 46.4064 149.877 45.679C150.625 44.9712 150.998 43.8899 150.998 42.435V39.8988C150.467 40.6656 149.73 41.3045 148.786 41.8157C147.862 42.3269 146.801 42.5825 145.601 42.5825C144.225 42.5825 142.967 42.2286 141.826 41.5208C140.686 40.813 139.782 39.8201 139.113 38.5422C138.465 37.2446 138.14 35.7603 138.14 34.0891C138.14 32.4376 138.465 30.9729 139.113 29.695C139.782 28.417 140.676 27.434 141.797 26.7459C142.937 26.0578 144.205 25.7137 145.601 25.7137ZM150.998 34.1481C150.998 33.1454 150.802 32.2902 150.408 31.5824C150.015 30.855 149.484 30.3045 148.816 29.9309C148.147 29.5377 147.43 29.3411 146.663 29.3411C145.896 29.3411 145.188 29.5279 144.54 29.9014C143.891 30.275 143.36 30.8255 142.947 31.5529C142.554 32.2607 142.357 33.1061 142.357 34.0891C142.357 35.0721 142.554 35.9372 142.947 36.6843C143.36 37.4117 143.891 37.9721 144.54 38.3653C145.208 38.7585 145.916 38.9551 146.663 38.9551C147.43 38.9551 148.147 38.7683 148.816 38.3948C149.484 38.0016 150.015 37.4511 150.408 36.7433C150.802 36.0158 150.998 35.1508 150.998 34.1481ZM168.242 25.7432C170.189 25.7432 171.762 26.3625 172.961 27.6011C174.16 28.8201 174.76 30.5306 174.76 32.7325V42.317H170.631V33.2929C170.631 31.9953 170.307 31.0024 169.658 30.3143C169.009 29.6065 168.124 29.2526 167.004 29.2526C165.863 29.2526 164.959 29.6065 164.291 30.3143C163.642 31.0024 163.317 31.9953 163.317 33.2929V42.317H159.189V25.9791H163.317V28.014C163.868 27.3062 164.566 26.7557 165.411 26.3625C166.276 25.9497 167.22 25.7432 168.242 25.7432Z" fill="white"/>
</g>
<defs>
<linearGradient id="paint0_linear_2_2593" x1="51.8407" y1="-15.4628" x2="-28.3315" y2="26.1303" gradientUnits="userSpaceOnUse">
<stop stop-color="#0075FF"/>
<stop offset="0.875" stop-color="#0075FF" stop-opacity="0"/>
</linearGradient>
<linearGradient id="paint1_linear_2_2593" x1="70.5283" y1="-3.40709" x2="-9.64395" y2="38.186" gradientUnits="userSpaceOnUse">
<stop stop-color="#0075FF"/>
<stop offset="0.786458" stop-color="#0075FF" stop-opacity="0"/>
</linearGradient>
<clipPath id="clip0_2_2593">
<rect width="222" height="64" fill="white" transform="translate(0 0.209961)"/>
</clipPath>
</defs>
</svg>
