<svg width="22" height="23" viewBox="0 0 22 23" fill="none" xmlns="http://www.w3.org/2000/svg">
<path d="M5.50983 2.69897L2.75983 6.36564V19.199C2.75983 19.6852 2.95298 20.1515 3.2968 20.4954C3.64061 20.8391 4.10693 21.0323 4.59316 21.0323H17.4265C17.9127 21.0323 18.379 20.8391 18.7229 20.4954C19.0667 20.1515 19.2598 19.6852 19.2598 19.199V6.36564L16.5098 2.69897H5.50983Z" fill="#04AADD"/>
<path d="M5.63204 2.33228L2.94315 3.06561V5.63228C2.94315 5.72952 3.13201 5.82279 3.46818 5.89155C3.80436 5.96031 4.26032 5.99894 4.73574 5.99894H17.2839C17.7593 5.99894 18.2153 5.96031 18.5514 5.89155C18.8876 5.82279 19.0765 5.72952 19.0765 5.63228V3.06561L16.3876 2.33228H5.63204Z" fill="#7CDBF9"/>
<path d="M2.75983 6.36572H19.2598" stroke="white" stroke-width="1.46667" stroke-linecap="round" stroke-linejoin="round"/>
<path d="M14.6765 10.0325C14.6765 11.0049 14.2902 11.9376 13.6025 12.6252C12.915 13.3128 11.9823 13.6991 11.0098 13.6991C10.0374 13.6991 9.10471 13.3128 8.41714 12.6252C7.72949 11.9376 7.34317 11.0049 7.34317 10.0325" stroke="white" stroke-width="1.46667" stroke-linecap="round" stroke-linejoin="round"/>
</svg>
