<svg width="22" height="23" viewBox="0 0 22 23" fill="none" xmlns="http://www.w3.org/2000/svg">
<path d="M11.2119 2.69897H10.8085C10.3223 2.69897 9.856 2.89213 9.51214 3.23594C9.16835 3.57976 8.97519 4.04608 8.97519 4.53231V4.69731C8.97483 5.01881 8.88998 5.33457 8.72909 5.61291C8.56819 5.89126 8.33697 6.12239 8.05853 6.28314L7.66436 6.51231C7.38562 6.67322 7.0695 6.75793 6.74769 6.75793C6.42587 6.75793 6.10972 6.67322 5.83102 6.51231L5.69352 6.43897C5.27283 6.1963 4.77304 6.13046 4.30385 6.25593C3.83467 6.38139 3.43444 6.68788 3.19102 7.10814L2.98935 7.45647C2.74668 7.87717 2.68085 8.37695 2.80631 8.84614C2.93176 9.31533 3.23826 9.71558 3.65852 9.95897L3.79602 10.0506C4.07311 10.2106 4.3035 10.4403 4.46431 10.7169C4.62513 10.9935 4.71076 11.3074 4.71269 11.6273V12.0948C4.71397 12.4178 4.62986 12.7355 4.4689 13.0156C4.30792 13.2957 4.07579 13.5283 3.79602 13.6898L3.65852 13.7723C3.23826 14.0157 2.93176 14.416 2.80631 14.8851C2.68085 15.3543 2.74668 15.8541 2.98935 16.2748L3.19102 16.6231C3.43444 17.0434 3.83467 17.3499 4.30385 17.4753C4.77304 17.6008 5.27283 17.535 5.69352 17.2923L5.83102 17.219C6.10972 17.0581 6.42587 16.9734 6.74769 16.9734C7.0695 16.9734 7.38562 17.0581 7.66436 17.219L8.05853 17.4481C8.33697 17.6089 8.56819 17.84 8.72909 18.1184C8.88998 18.3967 8.97483 18.7125 8.97519 19.034V19.199C8.97519 19.6852 9.16835 20.1515 9.51214 20.4954C9.856 20.8391 10.3223 21.0323 10.8085 21.0323H11.2119C11.6981 21.0323 12.1644 20.8391 12.5082 20.4954C12.852 20.1515 13.0452 19.6852 13.0452 19.199V19.034C13.0455 18.7125 13.1304 18.3967 13.2913 18.1184C13.4522 17.84 13.6834 17.6089 13.9619 17.4481L14.356 17.219C14.6347 17.0581 14.9508 16.9734 15.2727 16.9734C15.5945 16.9734 15.9106 17.0581 16.1894 17.219L16.3269 17.2923C16.7476 17.535 17.2473 17.6008 17.7165 17.4753C18.1857 17.3499 18.586 17.0434 18.8294 16.6231L19.031 16.2656C19.2737 15.8449 19.3395 15.3452 19.2141 14.876C19.0886 14.4068 18.7821 14.0065 18.3619 13.7631L18.2244 13.6898C17.9446 13.5283 17.7124 13.2957 17.5515 13.0156C17.3905 12.7355 17.3064 12.4178 17.3077 12.0948V11.6365C17.3064 11.3134 17.3905 10.9958 17.5515 10.7157C17.7124 10.4356 17.9446 10.203 18.2244 10.0415L18.3619 9.95897C18.7821 9.71558 19.0886 9.31533 19.2141 8.84614C19.3395 8.37695 19.2737 7.87717 19.031 7.45647L18.8294 7.10814C18.586 6.68788 18.1857 6.38139 17.7165 6.25593C17.2473 6.13046 16.7476 6.1963 16.3269 6.43897L16.1894 6.51231C15.9106 6.67322 15.5945 6.75793 15.2727 6.75793C14.9508 6.75793 14.6347 6.67322 14.356 6.51231L13.9619 6.28314C13.6834 6.12239 13.4522 5.89126 13.2913 5.61291C13.1304 5.33457 13.0455 5.01881 13.0452 4.69731V4.53231C13.0452 4.04608 12.852 3.57976 12.5082 3.23594C12.1644 2.89213 11.6981 2.69897 11.2119 2.69897Z" fill="#FAAD13"/>
<path d="M11.0098 14.6157C12.5286 14.6157 13.7598 13.3845 13.7598 11.8657C13.7598 10.3469 12.5286 9.11572 11.0098 9.11572C9.49102 9.11572 8.25983 10.3469 8.25983 11.8657C8.25983 13.3845 9.49102 14.6157 11.0098 14.6157Z" fill="white"/>
</svg>
