<svg width="94" height="60" viewBox="0 0 94 60" fill="none" xmlns="http://www.w3.org/2000/svg">
<g clip-path="url(#clip0_1_72)">
<path d="M12.0906 51.6654V5.34328C12.0906 3.92568 13.1893 2.86328 14.4565 2.86328H79.4271C80.7797 2.86328 81.7941 4.01528 81.7941 5.34328V51.6643" stroke="#498CD8" stroke-width="2.13333"/>
<path d="M75.7109 50.7792V9.06396H18.1749V50.7792" stroke="#498CD8" stroke-width="1.6"/>
<path d="M1.69913 51.4883V56.0056C1.69913 56.0056 4.82446 58.4856 7.10713 58.4856H86.7775C89.0591 58.4856 92.1855 56.0056 92.1855 56.0056V51.4883H1.69913Z" stroke="#498CD8" stroke-width="2.13333"/>
<path d="M29.2404 15.7061H36.8447M46.6453 15.7061H62.1066M39.8858 15.7061H43.4356M31.7738 30.0538H37.9413M49.5156 30.0538H62.1044M40.8991 30.0538H46.2218M63.457 44.313H70.0479M40.8991 44.313H59.7396M65.4037 30.0538H70.0501M35.0698 37.1407H37.9423M40.8991 37.1407H60.0778M65.3151 15.7061H68.8639M29.2404 22.8805H59.7407M22.9034 15.7061H26.0287M22.9034 22.8805H26.0287M22.9034 30.0538H26.0287M22.9034 37.1407H26.0287M22.9034 44.313H26.0287" stroke="#498CD8" stroke-width="1.6"/>
</g>
<defs>
<clipPath id="clip0_1_72">
<rect width="92.8" height="58.6667" fill="white" transform="translate(0.632446 0.90918)"/>
</clipPath>
</defs>
</svg>
