<svg xmlns="http://www.w3.org/2000/svg" viewBox="0 0 16 16" id="Navigation"><path d="M8 1.998c2.215 0 4 1.785 4 4 0 2.949-2.791 5.99-4 7.229-1.208-1.239-4-4.291-4-7.229 0-2.215 1.785-4 4-4zm0 2c-1.099 0-2 .901-2 2s.901 2 2 2 2-.901 2-2-.901-2-2-2zm0 1c.558 0 1 .442 1 1s-.442 1-1 1-1-.442-1-1 .442-1 1-1z" color="#8795fd" font-family="sans-serif" font-weight="400" overflow="visible" style="text-indent:0;text-align:start;line-height:normal;text-transform:none;block-progression:tb" fill="#0075ff" class="color000000 svgShape"></path></svg>
