<svg width="19" height="19" viewBox="0 0 19 19" fill="none" xmlns="http://www.w3.org/2000/svg">
<path d="M2.37059 10.6533L4.97397 11.7928L12.4765 7.69992L7.95145 12.9791L14.4373 15.9324C14.5482 15.981 14.6692 16.0021 14.79 15.9941C14.9108 15.986 15.0279 15.949 15.1314 15.8861C15.2349 15.8232 15.3217 15.7364 15.3845 15.6329C15.4474 15.5293 15.4843 15.4122 15.4923 15.2914L16.2465 3.97887C16.2549 3.84793 16.2291 3.71706 16.1715 3.59914C16.114 3.48122 16.0268 3.38031 15.9184 3.30634C15.81 3.23237 15.6843 3.1879 15.5535 3.17728C15.4227 3.16667 15.2914 3.19028 15.1726 3.24582L2.35174 9.27912C2.22096 9.34116 2.11075 9.43948 2.03422 9.56235C1.9577 9.68521 1.91806 9.82747 1.92005 9.97227C1.92204 10.117 1.96555 10.2581 2.04542 10.3788C2.12529 10.4996 2.23816 10.5948 2.37059 10.6533ZM6.44309 17.5041L10.045 15.7575L6.44309 14.0771V17.5041Z" fill="white"/>
</svg>
