<svg width="21" height="18" viewBox="0 0 21 18" fill="none" xmlns="http://www.w3.org/2000/svg">
<g clip-path="url(#clip0_2_779)">
<path d="M19.7617 3.02168C19.0569 3.33394 18.2999 3.54493 17.5041 3.6403C18.3252 3.14894 18.9395 2.37561 19.2325 1.46458C18.461 1.92285 17.6165 2.24541 16.736 2.41825C16.1439 1.78602 15.3597 1.36696 14.5049 1.22615C13.6502 1.08533 12.7729 1.23063 12.0093 1.6395C11.2456 2.04836 10.6383 2.69791 10.2816 3.48729C9.92495 4.27668 9.83886 5.16174 10.0367 6.00505C8.47347 5.92656 6.94419 5.52024 5.54811 4.81247C4.15205 4.10469 2.9204 3.11128 1.93311 1.89669C1.59552 2.47902 1.40142 3.15418 1.40142 3.87323C1.40104 4.52054 1.56044 5.15793 1.86549 5.72885C2.17053 6.29978 2.61178 6.78658 3.15008 7.14607C2.52579 7.12621 1.91527 6.95753 1.36934 6.65405V6.70469C1.36928 7.61257 1.68332 8.4925 2.25818 9.19519C2.83304 9.89788 3.63331 10.38 4.52319 10.5599C3.94406 10.7166 3.33688 10.7397 2.74751 10.6274C2.99859 11.4086 3.48766 12.0916 4.14626 12.5811C4.80486 13.0704 5.60001 13.3417 6.4204 13.3567C5.02774 14.45 3.30781 15.0431 1.53729 15.0405C1.22366 15.0405 0.910299 15.0222 0.598816 14.9855C2.396 16.1411 4.48804 16.7544 6.62465 16.7519C13.8573 16.7519 17.8113 10.7616 17.8113 5.5662C17.8113 5.39741 17.807 5.22692 17.7994 5.05813C18.5685 4.50195 19.2323 3.81322 19.7599 3.0242L19.7617 3.02168Z" fill="white"/>
</g>
<defs>
<clipPath id="clip0_2_779">
<rect width="19.992" height="17.64" fill="white" transform="translate(0.513824 0.225586)"/>
</clipPath>
</defs>
</svg>
